<svg xmlns="http://www.w3.org/2000/svg" xmlns:xlink="http://www.w3.org/1999/xlink"><defs>
<clipPath id="clip0_4_175">
<rect width="20" height="20" fill="white" transform="translate(0.499939)"/>
</clipPath>
</defs><symbol id="document-icon" viewBox="0 0 18 21">
<path d="M16.8125 4.60899L13.3304 1.12685C12.9174 0.713902 12.0915 0.36792 11.5 0.36792H1.50002C0.9085 0.36792 0.428589 0.847831 0.428589 1.43935V19.2965C0.428589 19.888 0.9085 20.3679 1.50002 20.3679H16.5C17.0915 20.3679 17.5714 19.888 17.5714 19.2965V6.43935C17.5714 5.84783 17.2255 5.02194 16.8125 4.60899ZM11.8572 1.88578C12.0469 1.95274 12.2366 2.05319 12.3148 2.13131L15.8081 5.62462C15.8862 5.70274 15.9866 5.89247 16.0536 6.08221H11.8572V1.88578ZM16.1429 18.9394H1.85716V1.79649H10.4286V6.43935C10.4286 7.03087 10.9085 7.51078 11.5 7.51078H16.1429V18.9394ZM4.7143 9.29649V10.0108C4.7143 10.2117 4.87055 10.3679 5.07145 10.3679H12.9286C13.1295 10.3679 13.2857 10.2117 13.2857 10.0108V9.29649C13.2857 9.0956 13.1295 8.93935 12.9286 8.93935H5.07145C4.87055 8.93935 4.7143 9.0956 4.7143 9.29649ZM12.9286 11.7965H5.07145C4.87055 11.7965 4.7143 11.9527 4.7143 12.1536V12.8679C4.7143 13.0688 4.87055 13.2251 5.07145 13.2251H12.9286C13.1295 13.2251 13.2857 13.0688 13.2857 12.8679V12.1536C13.2857 11.9527 13.1295 11.7965 12.9286 11.7965ZM12.9286 14.6536H5.07145C4.87055 14.6536 4.7143 14.8099 4.7143 15.0108V15.7251C4.7143 15.926 4.87055 16.0822 5.07145 16.0822H12.9286C13.1295 16.0822 13.2857 15.926 13.2857 15.7251V15.0108C13.2857 14.8099 13.1295 14.6536 12.9286 14.6536Z" fill="#272733"/>
</symbol><symbol id="file-icon" viewBox="0 0 56 55">
<path d="M24.4932 29.1224V27.8367C24.4932 27.4751 24.7745 27.1939 25.1361 27.1939H39.2789C39.6405 27.1939 39.9218 27.4751 39.9218 27.8367V29.1224C39.9218 29.484 39.6405 29.7653 39.2789 29.7653H25.1361C24.7745 29.7653 24.4932 29.484 24.4932 29.1224Z" fill="white"/>
<path d="M25.1361 32.3367H39.2789C39.6405 32.3367 39.9218 32.618 39.9218 32.9796V34.2653C39.9218 34.6269 39.6405 34.9081 39.2789 34.9081H25.1361C24.7745 34.9081 24.4932 34.6269 24.4932 34.2653V32.9796C24.4932 32.618 24.7745 32.3367 25.1361 32.3367Z" fill="white"/>
<path d="M25.1361 37.4796H39.2789C39.6405 37.4796 39.9218 37.7608 39.9218 38.1224V39.4081C39.9218 39.7698 39.6405 40.051 39.2789 40.051H25.1361C24.7745 40.051 24.4932 39.7698 24.4932 39.4081V38.1224C24.4932 37.7608 24.7745 37.4796 25.1361 37.4796Z" fill="white"/>
<path fill-rule="evenodd" clip-rule="evenodd" d="M16.7789 21.0648C12.6837 21.0648 9.36392 17.745 9.36392 13.6498C9.36392 9.55461 12.6837 6.2348 16.7789 6.2348C20.2229 6.2348 23.1185 8.58277 23.9523 11.7653H36.7075C37.7722 11.7653 39.2588 12.3881 40.0021 13.1314L46.27 19.3992C47.0133 20.1425 47.6361 21.6291 47.6361 22.6939V45.8367C47.6361 46.9015 46.7722 47.7653 45.7075 47.7653H18.7075C17.6428 47.7653 16.7789 46.9015 16.7789 45.8367L16.7789 21.0648ZM19.3504 20.6068C21.9729 19.6371 23.897 17.227 24.1625 14.3367H34.7789V22.6939C34.7789 23.7586 35.6428 24.6224 36.7075 24.6224H45.0646V45.1939H19.3504V20.6068ZM38.174 14.9394C38.0334 14.7988 37.6919 14.618 37.3504 14.4974V22.051H44.9039C44.7834 21.7095 44.6026 21.368 44.462 21.2273L38.174 14.9394ZM17.7789 14.6498H21.7789V12.6498H17.7789V8.64984H15.7789V12.6498H11.7789V14.6498H15.7789V18.6498H17.7789V14.6498Z" fill="white"/>
</symbol><symbol id="loremIpsum-logo" viewBox="0 0 245 22">
<path d="M0.904 21V1.12H5.496V16.968H15.128V21H0.904ZM24.7331 21.168C23.2584 21.168 21.9144 20.8787 20.7011 20.3C19.4878 19.7213 18.4518 18.9653 17.5931 18.032C16.7344 17.08 16.0624 15.9973 15.5771 14.784C15.1104 13.5707 14.8771 12.32 14.8771 11.032C14.8771 9.72533 15.1198 8.46533 15.6051 7.252C16.1091 6.03867 16.7998 4.97467 17.6771 4.06C18.5731 3.12667 19.6278 2.38933 20.8411 1.848C22.0544 1.288 23.3798 1.008 24.8171 1.008C26.2918 1.008 27.6358 1.29733 28.8491 1.876C30.0624 2.45467 31.0984 3.22 31.9571 4.172C32.8158 5.124 33.4784 6.20667 33.9451 7.42C34.4118 8.63333 34.6451 9.86533 34.6451 11.116C34.6451 12.4227 34.3931 13.6827 33.8891 14.896C33.4038 16.1093 32.7224 17.1827 31.8451 18.116C30.9678 19.0307 29.9224 19.768 28.7091 20.328C27.4958 20.888 26.1704 21.168 24.7331 21.168ZM19.5531 11.088C19.5531 11.8533 19.6651 12.6 19.8891 13.328C20.1131 14.0373 20.4398 14.672 20.8691 15.232C21.3171 15.792 21.8678 16.24 22.5211 16.576C23.1744 16.912 23.9211 17.08 24.7611 17.08C25.6384 17.08 26.4038 16.9027 27.0571 16.548C27.7104 16.1933 28.2518 15.736 28.6811 15.176C29.1104 14.5973 29.4278 13.9533 29.6331 13.244C29.8571 12.516 29.9691 11.7787 29.9691 11.032C29.9691 10.2667 29.8571 9.52933 29.6331 8.82C29.4091 8.092 29.0731 7.45733 28.6251 6.916C28.1771 6.356 27.6264 5.91733 26.9731 5.6C26.3384 5.264 25.6011 5.096 24.7611 5.096C23.8838 5.096 23.1184 5.27333 22.4651 5.628C21.8304 5.964 21.2891 6.412 20.8411 6.972C20.4118 7.532 20.0851 8.176 19.8611 8.904C19.6558 9.61333 19.5531 10.3413 19.5531 11.088ZM37.2985 21V1.12H46.2585C47.1919 1.12 48.0505 1.316 48.8345 1.708C49.6372 2.1 50.3279 2.61333 50.9065 3.248C51.4852 3.88267 51.9332 4.60133 52.2505 5.404C52.5865 6.20667 52.7545 7.01867 52.7545 7.84C52.7545 8.456 52.6799 9.05333 52.5305 9.632C52.3812 10.192 52.1665 10.724 51.8865 11.228C51.6065 11.732 51.2612 12.1893 50.8505 12.6C50.4585 12.992 50.0105 13.328 49.5065 13.608L53.8745 21H48.6945L44.8865 14.588H41.8905V21H37.2985ZM41.8905 10.584H46.0905C46.6319 10.584 47.0985 10.332 47.4905 9.828C47.8825 9.30533 48.0785 8.64267 48.0785 7.84C48.0785 7.01867 47.8545 6.36533 47.4065 5.88C46.9585 5.39467 46.4732 5.152 45.9505 5.152H41.8905V10.584ZM70.0283 16.968V21H56.0563V1.12H69.7763V5.152H60.6483V9.016H68.4883V12.74H60.6483V16.968H70.0283ZM88.4981 21V9.1L84.1861 17.752H81.7221L77.4101 9.1V21H72.8181V1.12H77.8021L82.9541 11.508L88.1341 1.12H93.0901V21H88.4981ZM96.9079 21V1.12H101.5V21H96.9079ZM105.302 21V1.12H113.786C114.738 1.12 115.606 1.316 116.39 1.708C117.193 2.1 117.874 2.61333 118.434 3.248C119.013 3.88267 119.461 4.60133 119.778 5.404C120.114 6.20667 120.282 7.01867 120.282 7.84C120.282 8.71733 120.124 9.55733 119.806 10.36C119.508 11.1627 119.078 11.8813 118.518 12.516C117.977 13.1507 117.314 13.6547 116.53 14.028C115.746 14.4013 114.878 14.588 113.926 14.588H109.894V21H105.302ZM109.894 10.584H113.646C114.188 10.584 114.654 10.3507 115.046 9.884C115.438 9.41733 115.634 8.736 115.634 7.84C115.634 7.37333 115.569 6.972 115.438 6.636C115.326 6.3 115.168 6.02 114.962 5.796C114.757 5.572 114.524 5.41333 114.262 5.32C114.001 5.208 113.74 5.152 113.478 5.152H109.894V10.584ZM134.676 6.944C134.62 6.86933 134.424 6.72933 134.088 6.524C133.752 6.31867 133.332 6.104 132.828 5.88C132.324 5.656 131.773 5.46 131.176 5.292C130.578 5.124 129.981 5.04 129.384 5.04C127.741 5.04 126.92 5.59067 126.92 6.692C126.92 7.028 127.004 7.308 127.172 7.532C127.358 7.756 127.62 7.96133 127.956 8.148C128.31 8.316 128.749 8.47467 129.272 8.624C129.794 8.77333 130.401 8.94133 131.092 9.128C132.044 9.38933 132.902 9.67867 133.668 9.996C134.433 10.2947 135.077 10.6773 135.6 11.144C136.141 11.592 136.552 12.1427 136.832 12.796C137.13 13.4493 137.28 14.2333 137.28 15.148C137.28 16.268 137.065 17.22 136.636 18.004C136.225 18.7693 135.674 19.3947 134.984 19.88C134.293 20.3467 133.5 20.692 132.604 20.916C131.708 21.1213 130.784 21.224 129.832 21.224C129.104 21.224 128.357 21.168 127.592 21.056C126.826 20.944 126.08 20.7853 125.352 20.58C124.624 20.356 123.914 20.0947 123.224 19.796C122.552 19.4973 121.926 19.152 121.348 18.76L123.364 14.756C123.438 14.8493 123.681 15.0267 124.092 15.288C124.502 15.5493 125.006 15.8107 125.604 16.072C126.22 16.3333 126.901 16.5667 127.648 16.772C128.394 16.9773 129.15 17.08 129.916 17.08C131.54 17.08 132.352 16.5853 132.352 15.596C132.352 15.2227 132.23 14.9147 131.988 14.672C131.745 14.4293 131.409 14.2147 130.98 14.028C130.55 13.8227 130.037 13.636 129.44 13.468C128.861 13.3 128.226 13.1133 127.536 12.908C126.621 12.628 125.828 12.3293 125.156 12.012C124.484 11.676 123.924 11.2933 123.476 10.864C123.046 10.4347 122.72 9.94 122.496 9.38C122.29 8.82 122.188 8.16667 122.188 7.42C122.188 6.37467 122.384 5.45067 122.776 4.648C123.168 3.84533 123.7 3.17333 124.372 2.632C125.044 2.072 125.818 1.652 126.696 1.372C127.592 1.092 128.534 0.951999 129.524 0.951999C130.214 0.951999 130.896 1.01733 131.568 1.148C132.24 1.27867 132.884 1.44667 133.5 1.652C134.116 1.85733 134.685 2.09067 135.208 2.352C135.749 2.61333 136.244 2.87467 136.692 3.136L134.676 6.944ZM148.514 17.08C149.298 17.08 149.961 16.9213 150.502 16.604C151.044 16.268 151.482 15.8293 151.818 15.288C152.154 14.7467 152.388 14.1307 152.518 13.44C152.668 12.7307 152.742 12.012 152.742 11.284V1.12H157.334V11.284C157.334 12.6653 157.157 13.9533 156.802 15.148C156.466 16.3427 155.934 17.388 155.206 18.284C154.497 19.18 153.582 19.8893 152.462 20.412C151.361 20.916 150.045 21.168 148.514 21.168C146.928 21.168 145.574 20.8973 144.454 20.356C143.334 19.8147 142.42 19.096 141.71 18.2C141.02 17.2853 140.506 16.2307 140.17 15.036C139.853 13.8413 139.694 12.5907 139.694 11.284V1.12H144.286V11.284C144.286 12.0493 144.361 12.7773 144.51 13.468C144.66 14.1587 144.902 14.7747 145.238 15.316C145.574 15.8573 146.004 16.2867 146.526 16.604C147.068 16.9213 147.73 17.08 148.514 17.08ZM176.572 21V9.1L172.26 17.752H169.796L165.484 9.1V21H160.892V1.12H165.876L171.028 11.508L176.208 1.12H181.164V21H176.572ZM184.59 21V16.436H188.258V21H184.59Z" fill="white"/>
<path d="M196.273 9.632V21H191.681V1.12H195.265L204.533 12.796V1.12H209.125V21H205.429L196.273 9.632ZM226.899 16.968V21H212.927V1.12H226.647V5.152H217.519V9.016H225.359V12.74H217.519V16.968H226.899ZM244.837 5.152H238.789V21H234.197V5.152H228.121V1.12H244.837V5.152Z" fill="#42A9ED"/>
</symbol><symbol id="mail-icon" viewBox="0 0 16 13">
<path d="M14.7503 10.8491C14.7503 10.9914 14.6248 11.117 14.4825 11.117H2.16106C2.01876 11.117 1.89321 10.9914 1.89321 10.8491V4.42057C2.06899 4.62146 2.26151 4.80561 2.47077 4.97302C3.66776 5.89378 4.87312 6.83128 6.03662 7.80226C6.66441 8.32961 7.44287 8.97414 8.31341 8.97414H8.32178H8.33015C9.20068 8.97414 9.97914 8.32961 10.6069 7.80226C11.7704 6.83128 12.9758 5.89378 14.1728 4.97302C14.382 4.80561 14.5746 4.62146 14.7503 4.42057V10.8491ZM14.7503 2.05171C14.7503 2.7632 14.064 3.69233 13.5199 4.11923C12.3982 4.99813 11.2766 5.88541 10.1633 6.77269C9.71966 7.13262 8.91609 7.90271 8.33015 7.90271H8.32178H8.31341C7.72747 7.90271 6.9239 7.13262 6.48026 6.77269C5.36698 5.88541 4.24533 4.99813 3.12367 4.11923C2.37033 3.52492 1.89321 2.69624 1.89321 1.742C1.89321 1.5997 2.01876 1.47414 2.16106 1.47414H14.4825C14.8006 1.47414 14.7503 1.84244 14.7503 2.05171ZM15.8218 1.742C15.8218 1.00539 15.2191 0.40271 14.4825 0.40271H2.16106C1.42446 0.40271 0.821777 1.00539 0.821777 1.742V10.8491C0.821777 11.5857 1.42446 12.1884 2.16106 12.1884H14.4825C15.2191 12.1884 15.8218 11.5857 15.8218 10.8491V1.742Z" fill="#3E9CDC"/>
</symbol><symbol id="message-icon" viewBox="0 0 56 55">
<path d="M44.9286 38.8571C44.9286 39.1987 44.6272 39.5 44.2857 39.5H14.7143C14.3728 39.5 14.0714 39.1987 14.0714 38.8571V23.4286C14.4933 23.9107 14.9554 24.3527 15.4576 24.7545C18.3304 26.9643 21.2232 29.2143 24.0156 31.5446C25.5223 32.8103 27.3906 34.3571 29.4799 34.3571H29.5H29.5201C31.6094 34.3571 33.4777 32.8103 34.9844 31.5446C37.7768 29.2143 40.6696 26.9643 43.5424 24.7545C44.0446 24.3527 44.5067 23.9107 44.9286 23.4286V38.8571ZM44.9286 17.7433C44.9286 19.4509 43.2813 21.6808 41.9754 22.7053C39.2835 24.8147 36.5915 26.9442 33.9196 29.0737C32.8549 29.9375 30.9263 31.7857 29.5201 31.7857H29.5H29.4799C28.0737 31.7857 26.1451 29.9375 25.0804 29.0737C22.4085 26.9442 19.7165 24.8147 17.0246 22.7053C15.2165 21.279 14.0714 19.2902 14.0714 17C14.0714 16.6585 14.3728 16.3571 14.7143 16.3571H44.2857C45.0491 16.3571 44.9286 17.2411 44.9286 17.7433ZM47.5 17C47.5 15.2321 46.0536 13.7857 44.2857 13.7857H14.7143C12.9464 13.7857 11.5 15.2321 11.5 17V38.8571C11.5 40.625 12.9464 42.0714 14.7143 42.0714H44.2857C46.0536 42.0714 47.5 40.625 47.5 38.8571V17Z" fill="white"/>
</symbol><symbol id="money-icon" viewBox="0 0 56 55">
<path d="M24.4286 31.7857V29.8571H27V24.0714H26.9598C26.6384 24.5737 26.3371 24.7946 25.8549 25.2165L24.308 23.6094L27.2812 20.8571H29.5714V29.8571H32.1429V31.7857H24.4286ZM34.7143 26.6428C34.7143 22.9866 32.5045 18.2857 28.2857 18.2857C24.067 18.2857 21.8571 22.9866 21.8571 26.6428C21.8571 30.2991 24.067 35 28.2857 35C32.5045 35 34.7143 30.2991 34.7143 26.6428ZM45 31.7857C42.1674 31.7857 39.8571 34.096 39.8571 36.9286H16.7143C16.7143 34.096 14.404 31.7857 11.5714 31.7857V21.5C14.404 21.5 16.7143 19.1897 16.7143 16.3571H39.8571C39.8571 19.1897 42.1674 21.5 45 21.5V31.7857ZM47.5714 15.0714C47.5714 14.3683 46.9888 13.7857 46.2857 13.7857H10.2857C9.58259 13.7857 9 14.3683 9 15.0714V38.2143C9 38.9174 9.58259 39.5 10.2857 39.5H46.2857C46.9888 39.5 47.5714 38.9174 47.5714 38.2143V15.0714Z" fill="white"/>
</symbol><symbol id="percent-icon" viewBox="0 0 56 55">
<path d="M38.2857 35.2143C38.2857 36.6205 37.1205 37.7857 35.7143 37.7857C34.308 37.7857 33.1429 36.6205 33.1429 35.2143C33.1429 33.808 34.308 32.6428 35.7143 32.6428C37.1205 32.6428 38.2857 33.808 38.2857 35.2143ZM22.8571 19.7857C22.8571 21.1919 21.692 22.3571 20.2857 22.3571C18.8795 22.3571 17.7143 21.1919 17.7143 19.7857C17.7143 18.3794 18.8795 17.2143 20.2857 17.2143C21.692 17.2143 22.8571 18.3794 22.8571 19.7857ZM43.4286 35.2143C43.4286 30.9553 39.9732 27.5 35.7143 27.5C31.4554 27.5 28 30.9553 28 35.2143C28 39.4732 31.4554 42.9286 35.7143 42.9286C39.9732 42.9286 43.4286 39.4732 43.4286 35.2143ZM41.5 13.3571C41.5 12.654 40.9174 12.0714 40.2143 12.0714H37C36.5982 12.0714 36.2165 12.2723 35.9754 12.5937L14.7612 40.8794C14.6004 41.1004 14.5 41.3616 14.5 41.6428C14.5 42.346 15.0826 42.9286 15.7857 42.9286H19C19.4018 42.9286 19.7835 42.7277 20.0246 42.4062L41.2388 14.1205C41.3996 13.8995 41.5 13.6384 41.5 13.3571ZM28 19.7857C28 15.5268 24.5446 12.0714 20.2857 12.0714C16.0268 12.0714 12.5714 15.5268 12.5714 19.7857C12.5714 24.0446 16.0268 27.5 20.2857 27.5C24.5446 27.5 28 24.0446 28 19.7857Z" fill="white"/>
</symbol><symbol id="qiwi-icon" viewBox="0 0 21 20">
<g clip-path="url(#clip0_4_175)">
<path d="M16.9118 13.4559C16.9719 13.8435 16.845 14.0076 16.7167 14.0076C16.5885 14.0076 16.4028 13.85 16.1957 13.5373C15.9887 13.2245 15.9179 12.8769 16.0181 12.6986C16.0558 12.6368 16.1167 12.5915 16.1881 12.572C16.2595 12.5525 16.3359 12.5604 16.4015 12.5939C16.7421 12.718 16.8757 13.2233 16.9118 13.4559ZM15.0241 14.3061C15.4343 14.6408 15.5585 15.0389 15.3421 15.3193C15.2762 15.3977 15.1922 15.46 15.0968 15.5013C15.0014 15.5426 14.8974 15.5617 14.793 15.557C14.5642 15.5574 14.3425 15.4801 14.1665 15.3386C13.7951 15.0246 13.6856 14.5142 13.9287 14.2247C13.9824 14.1653 14.0494 14.1186 14.1247 14.0881C14.2 14.0577 14.2814 14.0443 14.3629 14.049C14.6077 14.0569 14.8418 14.1479 15.0241 14.3061ZM14.3402 17.5367C16.1022 17.5367 18.0139 18.1208 20.1313 19.9351C20.3424 20.1161 20.6243 19.8912 20.4399 19.6651C18.3599 17.1258 16.4322 16.6412 14.5178 16.2329C12.172 15.7315 10.9643 14.4535 10.1187 13.0514C9.95167 12.7723 9.87552 12.8214 9.86083 13.1806C9.84679 13.7131 9.88841 14.2456 9.98507 14.7701C9.89022 14.7701 9.79403 14.7701 9.69918 14.7701C8.49698 14.7701 7.32179 14.4252 6.3222 13.7792C5.3226 13.1331 4.54352 12.2148 4.08346 11.1404C3.6234 10.0661 3.50302 8.88385 3.73756 7.7433C3.9721 6.60275 4.55101 5.55509 5.40109 4.7328C6.25117 3.91051 7.33424 3.35053 8.51334 3.12366C9.69244 2.89679 10.9146 3.01322 12.0253 3.45824C13.136 3.90326 14.0853 4.65688 14.7532 5.62379C15.4211 6.5907 15.7776 7.72748 15.7776 8.89037C15.7782 9.11877 15.7653 9.347 15.7389 9.57397C15.0985 9.49597 14.4514 9.48427 13.8085 9.53908C13.5773 9.55846 13.6107 9.6683 13.7844 9.69285C15.7883 10.043 17.175 11.2435 17.4902 13.4339C17.4914 13.445 17.4961 13.4555 17.5037 13.4638C17.5114 13.4721 17.5215 13.478 17.5328 13.4804C17.544 13.4828 17.5558 13.4818 17.5664 13.4774C17.577 13.473 17.5859 13.4654 17.5918 13.4559C18.6342 11.7703 19.0706 9.79838 18.8329 7.84774C18.5952 5.89709 17.6968 4.07738 16.2778 2.67245C14.8588 1.26752 12.999 0.356356 10.9885 0.0810911C8.97799 -0.194174 6.92984 0.181935 5.1635 1.15075C3.39717 2.11957 2.01197 3.62662 1.22396 5.43683C0.435958 7.24704 0.289461 9.25863 0.807322 11.1578C1.32518 13.057 2.47828 14.737 4.08676 15.9358C5.69524 17.1346 7.66865 17.7848 9.69918 17.7849C11.0418 17.7887 12.379 17.5355 14.3402 17.5355V17.5367Z" fill="#3E9CDC"/>
</g>

</symbol><symbol id="search-icon" viewBox="0 0 56 55">
<path d="M34.4286 24.9286C34.4286 29.8906 30.3906 33.9286 25.4286 33.9286C20.4665 33.9286 16.4286 29.8906 16.4286 24.9286C16.4286 19.9665 20.4665 15.9286 25.4286 15.9286C30.3906 15.9286 34.4286 19.9665 34.4286 24.9286ZM44.7143 41.6429C44.7143 40.9598 44.433 40.2969 43.971 39.8348L37.0803 32.9442C38.7076 30.5937 39.5714 27.7812 39.5714 24.9286C39.5714 17.1138 33.2433 10.7857 25.4286 10.7857C17.6138 10.7857 11.2857 17.1138 11.2857 24.9286C11.2857 32.7433 17.6138 39.0714 25.4286 39.0714C28.2812 39.0714 31.0937 38.2076 33.4442 36.5803L40.3348 43.4509C40.7969 43.933 41.4598 44.2143 42.1429 44.2143C43.5491 44.2143 44.7143 43.0491 44.7143 41.6429Z" fill="white"/>
</symbol><symbol id="vk-icon" viewBox="0 0 12 14">
<path d="M11.1804 9.28625C11.1804 9.93665 11.0574 10.5079 10.8113 11.0001C10.5652 11.4923 10.2341 11.8995 9.81812 12.2218C9.32593 12.6085 8.78394 12.8839 8.19214 13.048C7.6062 13.212 6.85913 13.2941 5.95093 13.2941H0.712646V0.207153H5.33569C6.29663 0.207153 7.02319 0.245239 7.51538 0.321411C8.01343 0.391724 8.47925 0.544067 8.91284 0.778442C9.38159 1.0304 9.73022 1.36731 9.95874 1.78918C10.1931 2.21106 10.3103 2.69739 10.3103 3.24817C10.3103 3.88684 10.1492 4.4552 9.8269 4.95325C9.5105 5.45129 9.07104 5.8175 8.50854 6.05188V6.12219C9.31714 6.29211 9.9646 6.64075 10.4509 7.16809C10.9373 7.68958 11.1804 8.39563 11.1804 9.28625ZM6.97046 3.90735C6.97046 3.69641 6.91479 3.47961 6.80347 3.25696C6.698 3.0343 6.53101 2.87317 6.30249 2.77356C6.08569 2.67981 5.82788 2.63 5.52905 2.62415C5.23608 2.61243 4.79663 2.60657 4.21069 2.60657H3.98218V5.37512H4.39526C4.95776 5.37512 5.35034 5.36926 5.573 5.35754C5.80151 5.34583 6.03589 5.2843 6.27612 5.17297C6.53979 5.04993 6.72144 4.88 6.82104 4.66321C6.92065 4.44641 6.97046 4.19446 6.97046 3.90735ZM7.79663 9.22473C7.79663 8.82043 7.7146 8.50403 7.55054 8.27551C7.38647 8.047 7.14038 7.87415 6.81226 7.75696C6.61304 7.68079 6.33765 7.63977 5.98608 7.63391C5.64038 7.62219 5.17456 7.61633 4.58862 7.61633H3.98218V10.8947H4.15796C5.01343 10.8947 5.60522 10.8888 5.93335 10.8771C6.26147 10.8654 6.59546 10.7863 6.9353 10.6398C7.23413 10.5109 7.45093 10.3234 7.58569 10.0773C7.72632 9.82532 7.79663 9.54114 7.79663 9.22473Z" fill="#3E9CDC"/>
</symbol><symbol id="web-money-icon" viewBox="0 0 19 18">
<path d="M9.34077 0C10.751 0 12.0928 0.323103 13.2969 0.901077C13.4857 0.986269 13.6758 1.08823 13.864 1.19028L13.0384 1.92159L11.8007 0.646297L9.66802 2.51651L8.41214 1.17307L4.49048 4.65889L7.00126 7.39646L6.02108 8.24641L8.49822 10.984L7.51795 11.8336L11.0613 15.7274L13.1585 13.823L14.9826 15.8639C14.6211 16.136 14.2255 16.4086 13.796 16.6462C12.4886 17.3773 10.9747 17.8016 9.35814 17.8016C4.38691 17.8016 0.345546 13.8066 0.345546 8.89314C0.327991 4.01286 4.37007 0 9.34077 0ZM7.68931 8.34864L9.83937 6.44418L11.7662 8.56952L9.61567 10.4738L7.68931 8.34864ZM9.22053 12.0214L11.3531 10.1001L13.2969 12.2253L11.1467 14.1298L9.22053 12.0214ZM6.15942 4.72713L8.30886 2.82267L10.2352 4.948L8.08507 6.85238L6.15942 4.72713ZM10.0974 3.70661L11.6971 2.27842L13.1423 3.85978L11.5426 5.30484L10.0974 3.70661ZM12.9529 10.2528L14.5521 8.82456L15.9972 10.4224L14.3974 11.8516L12.9529 10.2528ZM14.3631 13.4668L15.9629 12.0382L17.4068 13.6195L15.8076 15.0644L14.3631 13.4668ZM15.0168 6.12107L16.0831 5.16879L17.0459 6.22339L15.9799 7.17531L15.0168 6.12107ZM13.6408 2.97548L14.7071 2.00651L15.6707 3.07753L14.6036 4.02972L13.6408 2.97548ZM16.3755 9.26693L17.4417 8.31474L18.422 9.36899L17.3389 10.3209L16.3755 9.26693ZM11.5768 6.90341L13.1766 5.47513L14.6211 7.05614L13.022 8.48469L11.5768 6.90341Z" fill="#3E9CDC"/>
</symbol><symbol id="yandex-money-icon" viewBox="0 0 15 18">
<path fill-rule="evenodd" clip-rule="evenodd" d="M0.779835 8.9307C0.779835 7.94664 0.863032 7.32213 2.91811 5.80087C4.61949 4.54138 10.073 0.237427 10.073 0.237427V7.42209H14.2203V17.7627H2.07518C1.36275 17.7627 0.779633 17.1844 0.779633 16.4778L0.779835 8.93076V8.9307Z" fill="#3E9CDC"/>
<path fill-rule="evenodd" clip-rule="evenodd" d="M10.073 7.422V11.585L2.45212 16.7335L12.0874 13.6246V7.422H10.073Z" fill="black" fill-opacity="0.2"/>
<path fill-rule="evenodd" clip-rule="evenodd" d="M6.5904 7.20685C7.03609 6.68023 7.68696 6.49436 8.04435 6.79173C8.40174 7.08915 8.3303 7.75719 7.8846 8.2838C7.43925 8.81035 6.78811 8.99602 6.43072 8.69859C6.07333 8.40123 6.14497 7.73333 6.5904 7.20678V7.20685Z" fill="#231F20"/>
</symbol></svg>