<svg width="245" height="22" viewBox="0 0 245 22" fill="none" xmlns="http://www.w3.org/2000/svg">
<path d="M0.904 21V1.12H5.496V16.968H15.128V21H0.904ZM24.7331 21.168C23.2584 21.168 21.9144 20.8787 20.7011 20.3C19.4878 19.7213 18.4518 18.9653 17.5931 18.032C16.7344 17.08 16.0624 15.9973 15.5771 14.784C15.1104 13.5707 14.8771 12.32 14.8771 11.032C14.8771 9.72533 15.1198 8.46533 15.6051 7.252C16.1091 6.03867 16.7998 4.97467 17.6771 4.06C18.5731 3.12667 19.6278 2.38933 20.8411 1.848C22.0544 1.288 23.3798 1.008 24.8171 1.008C26.2918 1.008 27.6358 1.29733 28.8491 1.876C30.0624 2.45467 31.0984 3.22 31.9571 4.172C32.8158 5.124 33.4784 6.20667 33.9451 7.42C34.4118 8.63333 34.6451 9.86533 34.6451 11.116C34.6451 12.4227 34.3931 13.6827 33.8891 14.896C33.4038 16.1093 32.7224 17.1827 31.8451 18.116C30.9678 19.0307 29.9224 19.768 28.7091 20.328C27.4958 20.888 26.1704 21.168 24.7331 21.168ZM19.5531 11.088C19.5531 11.8533 19.6651 12.6 19.8891 13.328C20.1131 14.0373 20.4398 14.672 20.8691 15.232C21.3171 15.792 21.8678 16.24 22.5211 16.576C23.1744 16.912 23.9211 17.08 24.7611 17.08C25.6384 17.08 26.4038 16.9027 27.0571 16.548C27.7104 16.1933 28.2518 15.736 28.6811 15.176C29.1104 14.5973 29.4278 13.9533 29.6331 13.244C29.8571 12.516 29.9691 11.7787 29.9691 11.032C29.9691 10.2667 29.8571 9.52933 29.6331 8.82C29.4091 8.092 29.0731 7.45733 28.6251 6.916C28.1771 6.356 27.6264 5.91733 26.9731 5.6C26.3384 5.264 25.6011 5.096 24.7611 5.096C23.8838 5.096 23.1184 5.27333 22.4651 5.628C21.8304 5.964 21.2891 6.412 20.8411 6.972C20.4118 7.532 20.0851 8.176 19.8611 8.904C19.6558 9.61333 19.5531 10.3413 19.5531 11.088ZM37.2985 21V1.12H46.2585C47.1919 1.12 48.0505 1.316 48.8345 1.708C49.6372 2.1 50.3279 2.61333 50.9065 3.248C51.4852 3.88267 51.9332 4.60133 52.2505 5.404C52.5865 6.20667 52.7545 7.01867 52.7545 7.84C52.7545 8.456 52.6799 9.05333 52.5305 9.632C52.3812 10.192 52.1665 10.724 51.8865 11.228C51.6065 11.732 51.2612 12.1893 50.8505 12.6C50.4585 12.992 50.0105 13.328 49.5065 13.608L53.8745 21H48.6945L44.8865 14.588H41.8905V21H37.2985ZM41.8905 10.584H46.0905C46.6319 10.584 47.0985 10.332 47.4905 9.828C47.8825 9.30533 48.0785 8.64267 48.0785 7.84C48.0785 7.01867 47.8545 6.36533 47.4065 5.88C46.9585 5.39467 46.4732 5.152 45.9505 5.152H41.8905V10.584ZM70.0283 16.968V21H56.0563V1.12H69.7763V5.152H60.6483V9.016H68.4883V12.74H60.6483V16.968H70.0283ZM88.4981 21V9.1L84.1861 17.752H81.7221L77.4101 9.1V21H72.8181V1.12H77.8021L82.9541 11.508L88.1341 1.12H93.0901V21H88.4981ZM96.9079 21V1.12H101.5V21H96.9079ZM105.302 21V1.12H113.786C114.738 1.12 115.606 1.316 116.39 1.708C117.193 2.1 117.874 2.61333 118.434 3.248C119.013 3.88267 119.461 4.60133 119.778 5.404C120.114 6.20667 120.282 7.01867 120.282 7.84C120.282 8.71733 120.124 9.55733 119.806 10.36C119.508 11.1627 119.078 11.8813 118.518 12.516C117.977 13.1507 117.314 13.6547 116.53 14.028C115.746 14.4013 114.878 14.588 113.926 14.588H109.894V21H105.302ZM109.894 10.584H113.646C114.188 10.584 114.654 10.3507 115.046 9.884C115.438 9.41733 115.634 8.736 115.634 7.84C115.634 7.37333 115.569 6.972 115.438 6.636C115.326 6.3 115.168 6.02 114.962 5.796C114.757 5.572 114.524 5.41333 114.262 5.32C114.001 5.208 113.74 5.152 113.478 5.152H109.894V10.584ZM134.676 6.944C134.62 6.86933 134.424 6.72933 134.088 6.524C133.752 6.31867 133.332 6.104 132.828 5.88C132.324 5.656 131.773 5.46 131.176 5.292C130.578 5.124 129.981 5.04 129.384 5.04C127.741 5.04 126.92 5.59067 126.92 6.692C126.92 7.028 127.004 7.308 127.172 7.532C127.358 7.756 127.62 7.96133 127.956 8.148C128.31 8.316 128.749 8.47467 129.272 8.624C129.794 8.77333 130.401 8.94133 131.092 9.128C132.044 9.38933 132.902 9.67867 133.668 9.996C134.433 10.2947 135.077 10.6773 135.6 11.144C136.141 11.592 136.552 12.1427 136.832 12.796C137.13 13.4493 137.28 14.2333 137.28 15.148C137.28 16.268 137.065 17.22 136.636 18.004C136.225 18.7693 135.674 19.3947 134.984 19.88C134.293 20.3467 133.5 20.692 132.604 20.916C131.708 21.1213 130.784 21.224 129.832 21.224C129.104 21.224 128.357 21.168 127.592 21.056C126.826 20.944 126.08 20.7853 125.352 20.58C124.624 20.356 123.914 20.0947 123.224 19.796C122.552 19.4973 121.926 19.152 121.348 18.76L123.364 14.756C123.438 14.8493 123.681 15.0267 124.092 15.288C124.502 15.5493 125.006 15.8107 125.604 16.072C126.22 16.3333 126.901 16.5667 127.648 16.772C128.394 16.9773 129.15 17.08 129.916 17.08C131.54 17.08 132.352 16.5853 132.352 15.596C132.352 15.2227 132.23 14.9147 131.988 14.672C131.745 14.4293 131.409 14.2147 130.98 14.028C130.55 13.8227 130.037 13.636 129.44 13.468C128.861 13.3 128.226 13.1133 127.536 12.908C126.621 12.628 125.828 12.3293 125.156 12.012C124.484 11.676 123.924 11.2933 123.476 10.864C123.046 10.4347 122.72 9.94 122.496 9.38C122.29 8.82 122.188 8.16667 122.188 7.42C122.188 6.37467 122.384 5.45067 122.776 4.648C123.168 3.84533 123.7 3.17333 124.372 2.632C125.044 2.072 125.818 1.652 126.696 1.372C127.592 1.092 128.534 0.951999 129.524 0.951999C130.214 0.951999 130.896 1.01733 131.568 1.148C132.24 1.27867 132.884 1.44667 133.5 1.652C134.116 1.85733 134.685 2.09067 135.208 2.352C135.749 2.61333 136.244 2.87467 136.692 3.136L134.676 6.944ZM148.514 17.08C149.298 17.08 149.961 16.9213 150.502 16.604C151.044 16.268 151.482 15.8293 151.818 15.288C152.154 14.7467 152.388 14.1307 152.518 13.44C152.668 12.7307 152.742 12.012 152.742 11.284V1.12H157.334V11.284C157.334 12.6653 157.157 13.9533 156.802 15.148C156.466 16.3427 155.934 17.388 155.206 18.284C154.497 19.18 153.582 19.8893 152.462 20.412C151.361 20.916 150.045 21.168 148.514 21.168C146.928 21.168 145.574 20.8973 144.454 20.356C143.334 19.8147 142.42 19.096 141.71 18.2C141.02 17.2853 140.506 16.2307 140.17 15.036C139.853 13.8413 139.694 12.5907 139.694 11.284V1.12H144.286V11.284C144.286 12.0493 144.361 12.7773 144.51 13.468C144.66 14.1587 144.902 14.7747 145.238 15.316C145.574 15.8573 146.004 16.2867 146.526 16.604C147.068 16.9213 147.73 17.08 148.514 17.08ZM176.572 21V9.1L172.26 17.752H169.796L165.484 9.1V21H160.892V1.12H165.876L171.028 11.508L176.208 1.12H181.164V21H176.572ZM184.59 21V16.436H188.258V21H184.59Z" fill="white"/>
<path d="M196.273 9.632V21H191.681V1.12H195.265L204.533 12.796V1.12H209.125V21H205.429L196.273 9.632ZM226.899 16.968V21H212.927V1.12H226.647V5.152H217.519V9.016H225.359V12.74H217.519V16.968H226.899ZM244.837 5.152H238.789V21H234.197V5.152H228.121V1.12H244.837V5.152Z" fill="#42A9ED"/>
</svg>
